<svg width="256" height="256" viewBox="-5 -5 270 270" xmlns="http://www.w3.org/2000/svg" overflow="visible">
<g transform="translate(130,130)">

  <circle cx="0" cy="0" r="130" fill="#f0faf600" stroke="#c8efe300" stroke-width="1"/>
  <circle cx="0" cy="0" r="100" fill="#d6f3ea00" stroke="#9FE1CB" stroke-width="0.8"/>

  <g opacity="0.18">
    <line x1="-130" y1="0" x2="130" y2="0" stroke="#1D9E75" stroke-width="0.6"/>
    <line x1="0" y1="-130" x2="0" y2="130" stroke="#1D9E75" stroke-width="0.6"/>
    <line x1="-92" y1="-92" x2="92" y2="92" stroke="#1D9E75" stroke-width="0.6"/>
    <line x1="92" y1="-92" x2="-92" y2="92" stroke="#1D9E75" stroke-width="0.6"/>
  </g>

  <g>
    <g transform="rotate(0)">  <rect x="-3" y="-128" width="6" height="36" rx="3" fill="#1D9E75" opacity="0.9"/></g>
    <g transform="rotate(45)"> <rect x="-3" y="-128" width="6" height="36" rx="3" fill="#1D9E75" opacity="0.7"/></g>
    <g transform="rotate(90)"> <rect x="-3" y="-128" width="6" height="36" rx="3" fill="#1D9E75" opacity="0.9"/></g>
    <g transform="rotate(135)"><rect x="-3" y="-128" width="6" height="36" rx="3" fill="#1D9E75" opacity="0.7"/></g>
    <g transform="rotate(180)"><rect x="-3" y="-128" width="6" height="36" rx="3" fill="#1D9E75" opacity="0.9"/></g>
    <g transform="rotate(225)"><rect x="-3" y="-128" width="6" height="36" rx="3" fill="#1D9E75" opacity="0.7"/></g>
    <g transform="rotate(270)"><rect x="-3" y="-128" width="6" height="36" rx="3" fill="#1D9E75" opacity="0.9"/></g>
    <g transform="rotate(315)"><rect x="-3" y="-128" width="6" height="36" rx="3" fill="#1D9E75" opacity="0.7"/></g>
  </g>

  <polygon points="0,-82 71,-41 71,41 0,82 -71,41 -71,-41" fill="#5DCAA5" opacity="0.35" stroke="#1D9E75" stroke-width="1.2"/>
  <polygon points="0,-56 48,-28 48,28 0,56 -48,28 -48,-28" fill="#1D9E75" opacity="0.15"/>
  <g transform="rotate(30)">
    <polygon points="0,-82 71,-41 71,41 0,82 -71,41 -71,-41" fill="none" stroke="#0F6E56" stroke-width="0.8" opacity="0.4"/>
  </g>

  <g>
    <g transform="rotate(0)">  <polygon points="0,-56 14,-8 0,8 -14,-8" fill="#1D9E75" opacity="0.9"/></g>
    <g transform="rotate(60)"> <polygon points="0,-56 14,-8 0,8 -14,-8" fill="#5DCAA5" opacity="0.8"/></g>
    <g transform="rotate(120)"><polygon points="0,-56 14,-8 0,8 -14,-8" fill="#1D9E75" opacity="0.9"/></g>
    <g transform="rotate(180)"><polygon points="0,-56 14,-8 0,8 -14,-8" fill="#5DCAA5" opacity="0.8"/></g>
    <g transform="rotate(240)"><polygon points="0,-56 14,-8 0,8 -14,-8" fill="#1D9E75" opacity="0.9"/></g>
    <g transform="rotate(300)"><polygon points="0,-56 14,-8 0,8 -14,-8" fill="#5DCAA5" opacity="0.8"/></g>
  </g>

  <circle cx="0" cy="0" r="22" fill="#085041"/>

  <g transform="rotate(0)">  <circle cx="0" cy="-56" r="5" fill="#1D9E75"/></g>
  <g transform="rotate(60)"> <circle cx="0" cy="-56" r="4" fill="#5DCAA5" opacity="0.85"/></g>
  <g transform="rotate(120)"><circle cx="0" cy="-56" r="5" fill="#1D9E75"/></g>
  <g transform="rotate(180)"><circle cx="0" cy="-56" r="4" fill="#5DCAA5" opacity="0.85"/></g>
  <g transform="rotate(240)"><circle cx="0" cy="-56" r="5" fill="#1D9E75"/></g>
  <g transform="rotate(300)"><circle cx="0" cy="-56" r="4" fill="#5DCAA5" opacity="0.85"/></g>

  <circle cx="0" cy="0" r="13" fill="#9FE1CB"/>
  <circle cx="0" cy="0" r="6"  fill="#ffffff"/>
</g>
</svg>